<svg width="63" height="32" viewBox="0 0 63 32" fill="none" xmlns="http://www.w3.org/2000/svg">
<path d="M7.77273 3.27273C7.70455 2.69697 7.42803 2.25 6.94318 1.93182C6.45833 1.61364 5.86364 1.45455 5.15909 1.45455C4.64394 1.45455 4.19318 1.53788 3.80682 1.70455C3.42424 1.87121 3.125 2.10038 2.90909 2.39205C2.69697 2.68371 2.59091 3.01515 2.59091 3.38636C2.59091 3.69697 2.66477 3.96401 2.8125 4.1875C2.96402 4.4072 3.1572 4.59091 3.39205 4.73864C3.62689 4.88258 3.87311 5.00189 4.13068 5.09659C4.38826 5.1875 4.625 5.26136 4.84091 5.31818L6.02273 5.63636C6.32576 5.71591 6.66288 5.82576 7.03409 5.96591C7.40909 6.10606 7.76705 6.29735 8.10795 6.53977C8.45265 6.77841 8.73674 7.08523 8.96023 7.46023C9.18371 7.83523 9.29545 8.29545 9.29545 8.84091C9.29545 9.4697 9.13068 10.0379 8.80114 10.5455C8.47538 11.053 7.99811 11.4564 7.36932 11.7557C6.74432 12.0549 5.98485 12.2045 5.09091 12.2045C4.25758 12.2045 3.53598 12.0701 2.92614 11.8011C2.32008 11.5322 1.8428 11.1572 1.49432 10.6761C1.14962 10.1951 0.954545 9.63636 0.909091 9H2.36364C2.40152 9.43939 2.54924 9.80303 2.80682 10.0909C3.06818 10.375 3.39773 10.5871 3.79545 10.7273C4.19697 10.8636 4.62879 10.9318 5.09091 10.9318C5.62879 10.9318 6.11174 10.8447 6.53977 10.6705C6.9678 10.4924 7.30682 10.2462 7.55682 9.93182C7.80682 9.61364 7.93182 9.24242 7.93182 8.81818C7.93182 8.43182 7.82386 8.11742 7.60795 7.875C7.39205 7.63258 7.10795 7.43561 6.75568 7.28409C6.40341 7.13258 6.02273 7 5.61364 6.88636L4.18182 6.47727C3.27273 6.21591 2.55303 5.8428 2.02273 5.35795C1.49242 4.87311 1.22727 4.23864 1.22727 3.45455C1.22727 2.80303 1.40341 2.23485 1.75568 1.75C2.11174 1.26136 2.58902 0.882575 3.1875 0.613636C3.78977 0.340909 4.46212 0.204545 5.20455 0.204545C5.95455 0.204545 6.62121 0.339015 7.20455 0.607954C7.78788 0.873105 8.25 1.23674 8.59091 1.69886C8.93561 2.16098 9.11742 2.68561 9.13636 3.27273H7.77273ZM10.9759 1.61364V0.363636H19.7031V1.61364H16.044V12H14.6349V1.61364H10.9759ZM31.2116 6.18182C31.2116 7.40909 30.9901 8.4697 30.5469 9.36364C30.1037 10.2576 29.4957 10.947 28.723 11.4318C27.9503 11.9167 27.0677 12.1591 26.0753 12.1591C25.0829 12.1591 24.2003 11.9167 23.4276 11.4318C22.6548 10.947 22.0469 10.2576 21.6037 9.36364C21.1605 8.4697 20.9389 7.40909 20.9389 6.18182C20.9389 4.95455 21.1605 3.89394 21.6037 3C22.0469 2.10606 22.6548 1.41667 23.4276 0.931818C24.2003 0.446969 25.0829 0.204545 26.0753 0.204545C27.0677 0.204545 27.9503 0.446969 28.723 0.931818C29.4957 1.41667 30.1037 2.10606 30.5469 3C30.9901 3.89394 31.2116 4.95455 31.2116 6.18182ZM29.848 6.18182C29.848 5.17424 29.6795 4.32386 29.3423 3.63068C29.009 2.9375 28.5563 2.41288 27.9844 2.05682C27.4162 1.70076 26.7798 1.52273 26.0753 1.52273C25.3707 1.52273 24.7325 1.70076 24.1605 2.05682C23.5923 2.41288 23.1397 2.9375 22.8026 3.63068C22.4692 4.32386 22.3026 5.17424 22.3026 6.18182C22.3026 7.18939 22.4692 8.03977 22.8026 8.73295C23.1397 9.42614 23.5923 9.95076 24.1605 10.3068C24.7325 10.6629 25.3707 10.8409 26.0753 10.8409C26.7798 10.8409 27.4162 10.6629 27.9844 10.3068C28.5563 9.95076 29.009 9.42614 29.3423 8.73295C29.6795 8.03977 29.848 7.18939 29.848 6.18182ZM42.9446 4H41.5355C41.4522 3.5947 41.3063 3.23864 41.098 2.93182C40.8935 2.625 40.6435 2.36742 40.348 2.15909C40.0563 1.94697 39.7325 1.78788 39.3764 1.68182C39.0204 1.57576 38.6491 1.52273 38.2628 1.52273C37.5582 1.52273 36.92 1.70076 36.348 2.05682C35.7798 2.41288 35.3272 2.9375 34.9901 3.63068C34.6567 4.32386 34.4901 5.17424 34.4901 6.18182C34.4901 7.18939 34.6567 8.03977 34.9901 8.73295C35.3272 9.42614 35.7798 9.95076 36.348 10.3068C36.92 10.6629 37.5582 10.8409 38.2628 10.8409C38.6491 10.8409 39.0204 10.7879 39.3764 10.6818C39.7325 10.5758 40.0563 10.4186 40.348 10.2102C40.6435 9.99811 40.8935 9.73864 41.098 9.43182C41.3063 9.12121 41.4522 8.76515 41.5355 8.36364H42.9446C42.8385 8.95833 42.6454 9.49053 42.3651 9.96023C42.0848 10.4299 41.7363 10.8295 41.3196 11.1591C40.9029 11.4848 40.4351 11.733 39.9162 11.9034C39.401 12.0739 38.8499 12.1591 38.2628 12.1591C37.2704 12.1591 36.3878 11.9167 35.6151 11.4318C34.8423 10.947 34.2344 10.2576 33.7912 9.36364C33.348 8.4697 33.1264 7.40909 33.1264 6.18182C33.1264 4.95455 33.348 3.89394 33.7912 3C34.2344 2.10606 34.8423 1.41667 35.6151 0.931818C36.3878 0.446969 37.2704 0.204545 38.2628 0.204545C38.8499 0.204545 39.401 0.289772 39.9162 0.460227C40.4351 0.630682 40.9029 0.880682 41.3196 1.21023C41.7363 1.53598 42.0848 1.93371 42.3651 2.40341C42.6454 2.86932 42.8385 3.40151 42.9446 4ZM45.2216 12V0.363636H46.6307V6.13636H46.767L51.9943 0.363636H53.8352L48.9489 5.61364L53.8352 12H52.1307L48.0852 6.59091L46.6307 8.22727V12H45.2216ZM10.7727 23H9.36364C9.2803 22.5947 9.13447 22.2386 8.92614 21.9318C8.72159 21.625 8.47159 21.3674 8.17614 21.1591C7.88447 20.947 7.56061 20.7879 7.20455 20.6818C6.84849 20.5758 6.47727 20.5227 6.09091 20.5227C5.38636 20.5227 4.74811 20.7008 4.17614 21.0568C3.60795 21.4129 3.1553 21.9375 2.81818 22.6307C2.48485 23.3239 2.31818 24.1742 2.31818 25.1818C2.31818 26.1894 2.48485 27.0398 2.81818 27.733C3.1553 28.4261 3.60795 28.9508 4.17614 29.3068C4.74811 29.6629 5.38636 29.8409 6.09091 29.8409C6.47727 29.8409 6.84849 29.7879 7.20455 29.6818C7.56061 29.5758 7.88447 29.4186 8.17614 29.2102C8.47159 28.9981 8.72159 28.7386 8.92614 28.4318C9.13447 28.1212 9.2803 27.7652 9.36364 27.3636H10.7727C10.6667 27.9583 10.4735 28.4905 10.1932 28.9602C9.91288 29.4299 9.56439 29.8295 9.14773 30.1591C8.73106 30.4848 8.26326 30.733 7.74432 30.9034C7.22917 31.0739 6.67803 31.1591 6.09091 31.1591C5.09849 31.1591 4.21591 30.9167 3.44318 30.4318C2.67045 29.947 2.0625 29.2576 1.61932 28.3636C1.17614 27.4697 0.954545 26.4091 0.954545 25.1818C0.954545 23.9545 1.17614 22.8939 1.61932 22C2.0625 21.1061 2.67045 20.4167 3.44318 19.9318C4.21591 19.447 5.09849 19.2045 6.09091 19.2045C6.67803 19.2045 7.22917 19.2898 7.74432 19.4602C8.26326 19.6307 8.73106 19.8807 9.14773 20.2102C9.56439 20.536 9.91288 20.9337 10.1932 21.4034C10.4735 21.8693 10.6667 22.4015 10.7727 23ZM13.0497 31V19.3636H20.0724V20.6136H14.4588V24.5455H19.7088V25.7955H14.4588V29.75H20.1634V31H13.0497ZM31.8395 19.3636V31H30.4759L24.1349 21.8636H24.0213V31H22.6122V19.3636H23.9759L30.3395 28.5227H30.4531V19.3636H31.8395ZM34.0227 20.6136V19.3636H42.75V20.6136H39.0909V31H37.6818V20.6136H34.0227ZM44.9247 31V19.3636H51.9474V20.6136H46.3338V24.5455H51.5838V25.7955H46.3338V29.75H52.0384V31H44.9247ZM54.4872 31V19.3636H58.419C59.3281 19.3636 60.0743 19.5189 60.6577 19.8295C61.241 20.1364 61.6728 20.5587 61.9531 21.0966C62.2334 21.6345 62.3736 22.2462 62.3736 22.9318C62.3736 23.6174 62.2334 24.2254 61.9531 24.7557C61.6728 25.286 61.2429 25.7027 60.6634 26.0057C60.0838 26.3049 59.3433 26.4545 58.4418 26.4545H55.2599V25.1818H58.3963C59.0175 25.1818 59.5175 25.0909 59.8963 24.9091C60.2789 24.7273 60.5554 24.4697 60.7259 24.1364C60.9001 23.7992 60.9872 23.3977 60.9872 22.9318C60.9872 22.4659 60.9001 22.0587 60.7259 21.7102C60.5516 21.3617 60.2732 21.0928 59.8906 20.9034C59.508 20.7102 59.0024 20.6136 58.3736 20.6136H55.8963V31H54.4872ZM59.9645 25.7727L62.8281 31H61.1918L58.3736 25.7727H59.9645Z" fill="black"/>
</svg>
